<svg width="13" height="20" viewBox="0 0 13 20" fill="none" xmlns="http://www.w3.org/2000/svg">
<path d="M7.61523 3L6.1154 4L4.61556 5L7.61523 5L7.61523 3Z" fill="#7CBEFF"/>
<path d="M4.61523 17L6.11507 16L7.61491 15L4.61523 15L4.61523 17Z" fill="#7CBEFF"/>
<path d="M4.61523 15.5L7.61492 15.0001L7.61492 4.50006L4.61524 5.00006L4.61523 15.5Z" fill="#7CBEFF"/>
<path d="M3 6L1.5 7L1.7802e-06 8L3 8L3 6Z" fill="#C5E1FF"/>
<path d="M0 20L1.5 19L3 18L-1.74846e-07 18L0 20Z" fill="#C5E1FF"/>
<path d="M0 18.5L3 18L3 7.5L-8.74228e-07 8L0 18.5Z" fill="#C5E1FF"/>
<path d="M12.2305 0L10.7307 1L9.23086 2L12.2305 2L12.2305 0Z" fill="#1A8CFF"/>
<path d="M9.23096 14L10.7308 13L12.2306 12L9.23096 12L9.23096 14Z" fill="#1A8CFF"/>
<path d="M9.23096 12.5L12.2306 12L12.2306 1.49995L9.23097 1.99995L9.23096 12.5Z" fill="#1A8CFF"/>
</svg>
